<svg version="1" xmlns="http://www.w3.org/2000/svg" width="862.667" height="862.667" viewBox="0 0 647.000000 647.000000"><path d="M0 323.5V647h647V0H0v323.5zm266.4-200.6c1 1.1 2.3 5.5 3.2 10.8.8 4.8 2.8 15.8 4.4 24.3 1.6 8.5 3.2 17.4 3.5 19.8.8 4.9 2 6 11.6 9.8 3.5 1.4 7.8 3.1 9.4 3.9 10.7 4.8 25.9 10.5 29.1 11.1 3.4.5 4.5.1 8.5-2.9 35.6-27.3 80.6-40.5 125-36.7 71.2 6 131.6 53.1 154.8 120.5 6.5 19.1 9.1 35.2 9.1 58 0 33.5-6.8 59.3-23.4 88.8l-4.9 8.7H485.1l-1.9-5.3c-4.8-12.9-9.2-25.5-9.2-26.4 0-.5 1.7-1.7 3.8-2.7 2-1 6.3-3.5 9.4-5.7 3.2-2.1 6.1-3.9 6.4-3.9.4 0 2.5-2 4.8-4.4 16.7-17.6 23.6-43.9 17.6-67-5.4-20.6-20.2-38.6-38.5-47.1-11.5-5.3-18.3-6.7-31.5-6.7-10.8 0-13.6.3-20.7 2.6-27 8.7-46.9 30.4-51.9 56.4-1.8 9.4-1.8 15.1.1 24.7 3.3 17.3 14.4 34.1 30.3 45.7 2.3 1.7 4.2 3.6 4.2 4.2-.1.6-3.4 8.7-7.4 18.1l-7.3 17-18.4.3-18.4.2-2.1-5.3-2.1-5.4 3.4-2.3c8.6-5.9 12.6-13.3 12.6-23.5 0-7.5-1.8-12.7-6.4-17.9-6.3-7.2-10.7-9.1-20.9-9.1-9.9 0-14.4 1.9-20.3 8.4-5 5.6-6.9 10.5-7.1 18.1-.2 9.9 3 16.3 11.4 22.9l4.7 3.7-1.9 5.2-2 5.3-15.1-.3-15.1-.3-4.3-6.9c-2.3-3.8-6-11.2-8.3-16.5-2.3-5.3-4.6-10.6-5.3-11.9-1-2.1-.5-2.9 5.5-9 14.2-14.6 19.8-27.9 19.8-47.2 0-19.7-6.7-35-21.2-48.6-35.9-33.5-95.4-16.1-108.4 31.7-2.4 8.6-2.4 25.2 0 33.8 4.7 17.3 16.2 32 32.1 41.1 6.1 3.5 6.3 4.4 2.2 12.4-1 2.2-3 6.7-4.2 10-1.3 3.4-2.9 7.3-3.6 8.8l-1.2 2.8H92.5l-2.6-2.3c-1.4-1.2-3.1-4-3.8-6.2-.7-2.2-1.9-5.4-2.7-7-.7-1.7-3.6-8.8-6.4-15.9-8.2-20.7-6.6-19.2-24-22.1-5.2-.9-16.4-2.9-24.7-4.5-8.4-1.7-15.4-3-15.7-3-1.4 0-1.7-6.5-1.7-31.9 0-17.6.4-28.8 1.1-29.5 1.1-1.1 18.7-4.9 33-7.1 14-2.2 24.3-4.6 25.7-5.9.6-.6 3-5.6 5.4-11.1 2.3-5.5 5.8-13.8 7.9-18.5 6.3-14.3 6.7-12.4-6-31.1-6.1-9-13.6-19.9-16.6-24.3-3-4.3-5.4-8.4-5.4-9 0-.6 9.6-10.7 21.4-22.5l21.4-21.4 5.9 4.1c25.5 17.7 44.6 30.2 46.2 30.2 1.1 0 7.5-2.3 14.3-5 6.8-2.8 15.8-6.4 20-8.1 7.2-2.8 7.8-3.3 8.7-6.7.9-3.3 4.1-19.8 8.8-45.7 2.7-14.8-.5-13.5 33.2-13.5 27 0 28.9.1 30.5 1.9zM148.8 444.2c-.3 2-1 2.3-5.5 2.6l-5.3.3-.2 16.2c-.3 15.9-.3 16.2-2.5 16.5l-2.3.3V447h-5.4c-5.6 0-7.2-.9-6.2-3.5.4-1.2 3.2-1.5 14.1-1.5 13.6 0 13.6 0 13.3 2.2zm28.7.3c0 1.8-.8 2-9.2 2.3l-9.3.3v10.8l7.8.3c7.1.3 7.7.5 8 2.5.3 2.2.1 2.3-7.7 2.3H159v12.9l9.3.3c7.4.2 9.2.6 9.2 1.8 0 1.2-1.9 1.5-11.5 1.5h-11.5l-.3-17.5c-.1-9.6 0-18 .3-18.7.3-1.1 3.1-1.3 11.7-1.1 10.5.3 11.3.4 11.3 2.3zm19.5-2.2c0 .2 2.9 8.4 6.5 18.2 3.6 9.9 6.5 18.3 6.5 18.7 0 .5-1 .8-2.3.8-1.9 0-2.6-.9-3.8-4.8l-1.5-4.7h-14.6L186 475c-1.2 3.1-2.4 4.6-3.9 4.8-1.1.2-2.1-.1-2.1-.6 0-.7 10.1-29.5 12.5-35.5.6-1.3 4.5-2.6 4.5-1.4zm28.9 14.4c3.1 7.8 5.9 14.4 6.2 14.7.3.3 3.2-6.2 6.5-14.4 5.5-14.2 6.1-15 8.4-14.8l2.5.3.3 18.7.2 18.8h-5v-13.3l-.1-13.2-5.2 13c-7.2 17.7-7.6 17.7-14.6 0-3-7.4-5.6-13.5-5.7-13.5-.1 0-.1 6 0 13.2.1 13.1.1 13.3-2.1 13.6l-2.3.3v-38.2l2.6.3c2.4.3 3.2 1.7 8.3 14.5zm66.2-12c4.4 3.8 5.9 8 5.9 17 0 11.9-4 17.9-12.6 18.9-9.2 1.2-15.4-6.6-15.4-19.2 0-8 1-11.7 4.3-15.3 4.7-5 12.7-5.6 17.8-1.4zm31.3-1.3c4.6 1.9 6.6 5.2 6.6 10.8 0 7.9-5.3 11.7-16.2 11.8H310v7c0 6.8-.1 7-2.5 7H305v-18.3c0-10.1.3-18.7.7-19 1.2-1.3 14.3-.7 17.7.7zm36.1 1.1c0 1.8-.8 2-9.2 2.3l-9.3.3v10.8l7.8.3c7.1.3 7.7.5 8 2.5.3 2.2.1 2.3-7.7 2.3H341v12.9l9.3.3c7.4.2 9.2.6 9.2 1.8 0 1.2-1.9 1.5-11.5 1.5h-11.5l-.3-17.5c-.1-9.6 0-18 .3-18.7.3-1.1 3.1-1.3 11.7-1.1 10.5.3 11.3.4 11.3 2.3zm19 11.7l9 14.2.5-14c.5-13.1.6-13.9 2.5-13.9s2 .7 2 18.5c0 18.1 0 18.5-2.1 18.8-1.8.3-3.7-2.1-11-13.7l-8.9-14-.3 13.9-.3 14H365v-18.3c0-10.1.3-18.7.7-19 2.1-2.1 4.5.4 12.8 13.5zm46.7.7c3.1 7.9 5.9 14.6 6.2 14.8.2.2 3-6.3 6.3-14.4 5.4-13.4 6.1-14.8 8.4-14.8h2.4l.3 18.8.2 18.8-2.2-.3c-2.2-.3-2.3-.7-2.8-12.8l-.5-12.5-5 12.8c-6.5 16.7-7.1 16.7-13.9-.3l-5.1-12.5-.3 12.7-.3 12.8H414v-18.3c0-10.1.3-18.7.7-19.1.4-.4 1.6-.6 2.7-.4 1.5.2 3.3 3.5 7.8 14.7zm37.3 4.1c0 18.4 0 18.5-2.2 18.8l-2.3.3v-18.4c0-10.1.3-18.7.7-19.1.4-.4 1.4-.5 2.3-.4 1.3.3 1.5 2.9 1.5 18.8zm22.1-5l8.9 14 .5-13.7c.5-13 .6-13.8 2.5-13.8s2 .8 2.3 18.7l.2 18.8h-2.2c-1.9 0-4.1-2.7-11.3-14.1l-9-14.1-.3 14.2c-.3 14-.3 14.1-2.5 13.8-2.2-.3-2.2-.6-2.5-17.8-.1-9.6 0-18 .2-18.7.3-.7 1.4-1.3 2.4-1.3 1.4 0 4.5 4 10.8 14zm41-11.4c5.9 4.4 6.9 6.8 6.9 16.7 0 8.1-.3 9.6-2.4 12.6-3.2 4.4-7.6 6.1-16.1 6.1h-7v-18.3c0-10.1.3-18.7.8-19.1.4-.4 3.9-.6 7.9-.4 5.3.2 7.9.9 9.9 2.4zm34.9.5c1.4 1.3 2.7 3.9 3.1 5.6.6 2.9.4 3.3-1.5 3.3-1.6 0-2.5-.9-3.3-3-1.2-3.5-3.5-5-7.5-5-6 0-9.5 5.7-5.8 9.3.8.8 4.6 2.7 8.5 4.2 8 3.1 10 5.3 10 11.1 0 13.1-23 13.6-25.6.5-.6-3-.5-3.3 1.7-2.9 1.6.2 2.5 1.1 2.7 2.5.7 5.2 11.1 7.4 15.2 3.3 4.1-4.1 1.4-8-7.5-11-10.4-3.5-14.3-10.2-9.4-16.4 2.9-3.7 5.4-4.6 11.7-4.3 4 .3 5.9 1 7.7 2.8zm-464.5 0c0 .6-1 1.9-2.2 2.9-1.7 1.4-2.4 3.3-3 8.6-1 8.7-1 8.6.1 16.9.7 5.3 1.4 7.3 3.2 8.7 1.6 1.4 1.9 2.2 1.1 3-.8.8-1.9.2-4.1-2-2.7-2.6-3.1-3.8-3.1-8.4 0-5.8-.6-7.1-3.2-8.1-2.5-.9-2.2-2.2.7-4.1 2.1-1.4 2.5-2.4 2.5-6.9 0-5 1.6-9 4.4-10.9 1.6-1.1 3.6-.9 3.6.3zm14 .2c0 .7-.8 1.7-1.9 2.4-1.4.9-1.9 2.8-2.3 7.7-.3 3.7-1.1 7.3-1.8 8.1-.9 1.1-1 1.8-.1 2.9.6.7 1.5 4.4 2 8.1.5 4.6 1.3 7 2.4 7.7 1.8 1 2.3 3.8.8 3.8-.6 0-2.2-1-3.6-2.3-2.1-1.7-2.8-3.4-3.2-7.2-.7-7.7-1.2-9.5-2.8-9.5-.8 0-1.5-.9-1.5-2s.7-2 1.5-2c1.6 0 2.1-1.8 2.8-9.3.3-3.2 1.2-5.6 2.8-7.3 2.4-2.6 4.9-3.2 4.9-1.1zm469.5 1.2c1.9 1.8 2.5 3.5 2.5 6.9 0 5.5 1.5 9.6 3.5 9.6 2.2 0 1.8 2-1 4.6-2.1 1.9-2.5 3.2-2.5 7.7 0 4.4-.5 5.9-2.5 8.1-2.6 2.8-4 3.2-5 1.6-.4-.6.4-1.9 1.6-2.9 1.7-1.4 2.5-3.4 3.2-8.7.9-7.6.9-8.3.1-16.9-.4-4.5-1.2-6.7-3-8.6-2.2-2.3-2.3-3.9-.2-3.9.5 0 2 1.1 3.3 2.5zm14-.2c2.3 1.9 2.8 3.3 3.2 9.1.5 5.6.9 7 2.4 7.3 2.5.7 2.4 3-.1 4.3-1.5.8-2 2.1-2 5.6 0 7-3.5 13.4-7.4 13.4-1.3 0-.4-2.8 1.4-4.5 1.5-1.4 2-3.1 2-6.9 0-3.1.6-6.1 1.6-7.4 1.4-2 1.4-2.4 0-4.4-1-1.4-1.6-4.4-1.6-7.5 0-4-.5-5.8-2-7.3-4-4-1.8-5.5 2.5-1.7z"/><path d="M192.1 457.2c-2.9 8.7-2.9 8.8 2.9 8.8 2.9 0 5-.5 5-1.1 0-1.8-4.5-13.9-5.2-13.9-.3 0-1.6 2.8-2.7 6.2zM278.1 448.8c-5 4.9-5 19.5 0 24.8 2.9 3.1 9 3.3 11.8.5 2.3-2.3 4.1-8.1 4.1-13.1 0-12.4-8.9-19.3-15.9-12.2zM310 454v7.1l6.1-.3c5.4-.3 6.5-.7 8.2-3 1.3-1.8 1.8-3.4 1.3-5.1-1.1-4.4-3.2-5.7-9.7-5.7H310v7zM512 461.5V476h4c5.2 0 9.3-2.1 10.8-5.6 2-4.2 2.5-10.6 1.3-15.1-1.6-5.7-5.1-8.3-11.2-8.3H512v14.5z"/></svg>